<svg xmlns="http://www.w3.org/2000/svg" xmlns:xlink="http://www.w3.org/1999/xlink" width="500" zoomAndPan="magnify" viewBox="0 0 375 374.999991" height="500" preserveAspectRatio="xMidYMid meet" version="1.0"><defs><clipPath id="e441f9d389"><path d="M 84 55 L 197.410156 55 L 197.410156 70 L 84 70 Z M 84 55 " clip-rule="nonzero"/></clipPath><clipPath id="d6b19ad900"><path d="M 47.410156 49.507812 L 73 49.507812 L 73 75 L 47.410156 75 Z M 47.410156 49.507812 " clip-rule="nonzero"/></clipPath></defs><g clip-path="url(#e441f9d389)"><path fill="#ffffff" d="M 84.914062 55.890625 L 90.210938 55.890625 C 90.964844 55.890625 91.664062 56.046875 92.300781 56.363281 C 92.9375 56.679688 93.4375 57.109375 93.804688 57.648438 C 94.167969 58.191406 94.351562 58.785156 94.351562 59.429688 C 94.351562 60.109375 94.183594 60.699219 93.851562 61.195312 C 93.515625 61.695312 93.078125 62.078125 92.535156 62.339844 L 92.535156 62.492188 C 93.242188 62.746094 93.804688 63.144531 94.21875 63.695312 C 94.636719 64.242188 94.84375 64.902344 94.84375 65.671875 C 94.84375 66.414062 94.644531 67.074219 94.246094 67.648438 C 93.835938 68.238281 93.300781 68.679688 92.640625 68.972656 C 91.964844 69.28125 91.21875 69.433594 90.398438 69.433594 L 84.914062 69.433594 Z M 90.019531 61.414062 C 90.574219 61.414062 91.019531 61.261719 91.355469 60.949219 C 91.6875 60.640625 91.855469 60.253906 91.855469 59.789062 C 91.855469 59.332031 91.695312 58.953125 91.371094 58.640625 C 91.050781 58.335938 90.625 58.179688 90.097656 58.179688 L 87.464844 58.179688 L 87.464844 61.414062 Z M 90.304688 67.109375 C 90.921875 67.109375 91.402344 66.949219 91.75 66.625 C 92.097656 66.304688 92.269531 65.886719 92.269531 65.367188 C 92.269531 64.851562 92.09375 64.429688 91.742188 64.101562 C 91.386719 63.773438 90.882812 63.609375 90.226562 63.609375 L 87.464844 63.609375 L 87.464844 67.109375 Z M 103.40625 69.738281 C 102.078125 69.738281 100.878906 69.425781 99.800781 68.800781 C 98.71875 68.179688 97.867188 67.328125 97.253906 66.238281 C 96.636719 65.152344 96.328125 63.960938 96.328125 62.664062 C 96.328125 61.363281 96.636719 60.171875 97.253906 59.085938 C 97.867188 58 98.714844 57.144531 99.800781 56.523438 C 100.878906 55.898438 102.078125 55.585938 103.40625 55.585938 C 104.730469 55.585938 105.929688 55.898438 107.007812 56.523438 C 108.09375 57.144531 108.941406 58 109.554688 59.089844 C 110.171875 60.171875 110.480469 61.363281 110.480469 62.664062 C 110.480469 63.960938 110.171875 65.152344 109.554688 66.238281 C 108.941406 67.328125 108.09375 68.179688 107.007812 68.800781 C 105.929688 69.425781 104.730469 69.738281 103.40625 69.738281 Z M 103.40625 67.316406 C 104.21875 67.324219 104.980469 67.128906 105.691406 66.730469 C 106.394531 66.335938 106.941406 65.789062 107.328125 65.085938 C 107.726562 64.378906 107.925781 63.570312 107.925781 62.664062 C 107.925781 61.753906 107.726562 60.949219 107.328125 60.242188 C 106.941406 59.539062 106.394531 58.988281 105.691406 58.597656 C 104.980469 58.195312 104.21875 58 103.40625 58.007812 C 102.589844 58 101.832031 58.195312 101.125 58.597656 C 100.425781 58.992188 99.882812 59.539062 99.496094 60.242188 C 99.101562 60.949219 98.902344 61.753906 98.902344 62.664062 C 98.902344 63.570312 99.101562 64.378906 99.496094 65.085938 C 99.882812 65.785156 100.425781 66.335938 101.125 66.730469 C 101.832031 67.128906 102.589844 67.324219 103.40625 67.316406 Z M 118.964844 69.738281 C 117.640625 69.738281 116.4375 69.425781 115.359375 68.800781 C 114.277344 68.179688 113.429688 67.328125 112.816406 66.238281 C 112.199219 65.152344 111.890625 63.960938 111.890625 62.664062 C 111.890625 61.363281 112.199219 60.171875 112.816406 59.085938 C 113.429688 58 114.277344 57.144531 115.359375 56.523438 C 116.4375 55.898438 117.640625 55.585938 118.964844 55.585938 C 120.289062 55.585938 121.488281 55.898438 122.566406 56.523438 C 123.652344 57.144531 124.5 58 125.109375 59.089844 C 125.730469 60.171875 126.039062 61.363281 126.039062 62.664062 C 126.039062 63.960938 125.730469 65.152344 125.113281 66.238281 C 124.5 67.328125 123.652344 68.179688 122.566406 68.800781 C 121.488281 69.425781 120.289062 69.738281 118.964844 69.738281 Z M 118.964844 67.316406 C 119.777344 67.324219 120.542969 67.128906 121.253906 66.730469 C 121.953125 66.335938 122.5 65.789062 122.890625 65.085938 C 123.285156 64.378906 123.484375 63.570312 123.484375 62.664062 C 123.484375 61.753906 123.285156 60.949219 122.890625 60.242188 C 122.5 59.539062 121.953125 58.988281 121.253906 58.597656 C 120.542969 58.195312 119.777344 58 118.964844 58.007812 C 118.152344 58 117.390625 58.195312 116.683594 58.597656 C 115.984375 58.992188 115.445312 59.539062 115.058594 60.242188 C 114.660156 60.949219 114.460938 61.753906 114.460938 62.664062 C 114.460938 63.570312 114.660156 64.378906 115.058594 65.085938 C 115.445312 65.785156 115.988281 66.335938 116.683594 66.730469 C 117.390625 67.128906 118.152344 67.324219 118.964844 67.316406 Z M 128.316406 55.890625 L 130.871094 55.890625 L 130.871094 61.699219 L 131.023438 61.699219 L 135.980469 55.890625 L 139.0625 55.890625 L 139.0625 56.042969 L 134.164062 61.640625 L 139.574219 69.285156 L 139.574219 69.433594 L 136.453125 69.433594 L 132.40625 63.664062 L 130.875 65.460938 L 130.875 69.433594 L 128.320312 69.433594 L 128.320312 55.890625 Z M 142.453125 55.585938 L 145.746094 55.585938 L 149.339844 65.105469 L 149.492188 65.105469 L 153.085938 55.585938 L 156.394531 55.585938 L 156.394531 69.132812 L 153.859375 69.132812 L 153.859375 62.453125 L 154.011719 60.203125 L 153.859375 60.203125 L 150.417969 69.132812 L 148.429688 69.132812 L 144.96875 60.203125 L 144.816406 60.203125 L 144.96875 62.453125 L 144.96875 69.132812 L 142.453125 69.132812 Z M 163.535156 55.585938 L 166.464844 55.585938 L 171.554688 69.132812 L 168.738281 69.132812 L 167.601562 65.898438 L 162.417969 65.898438 L 161.28125 69.132812 L 158.464844 69.132812 Z M 166.769531 63.550781 L 165.578125 60.148438 L 165.085938 58.519531 L 164.933594 58.519531 L 164.441406 60.148438 L 163.230469 63.550781 Z M 173.640625 55.585938 L 178.578125 55.585938 C 179.460938 55.585938 180.246094 55.769531 180.933594 56.136719 C 181.621094 56.503906 182.15625 57.007812 182.53125 57.660156 C 182.910156 58.308594 183.101562 59.042969 183.101562 59.863281 C 183.101562 60.734375 182.828125 61.503906 182.277344 62.179688 C 181.722656 62.863281 181.035156 63.351562 180.207031 63.648438 L 180.1875 63.777344 L 183.820312 68.980469 L 183.820312 69.132812 L 180.886719 69.132812 L 177.386719 64.042969 L 176.195312 64.042969 L 176.195312 69.132812 L 173.640625 69.132812 Z M 178.558594 61.699219 C 179.140625 61.699219 179.613281 61.523438 179.980469 61.167969 C 180.34375 60.816406 180.527344 60.367188 180.527344 59.824219 C 180.527344 59.308594 180.355469 58.867188 180.007812 58.5 C 179.660156 58.136719 179.191406 57.953125 178.597656 57.953125 L 176.195312 57.953125 L 176.195312 61.699219 Z M 185.886719 55.585938 L 188.441406 55.585938 L 188.441406 61.394531 L 188.59375 61.394531 L 193.546875 55.585938 L 196.632812 55.585938 L 196.632812 55.738281 L 191.734375 61.339844 L 197.144531 68.980469 L 197.144531 69.132812 L 194.023438 69.132812 L 189.972656 63.363281 L 188.441406 65.160156 L 188.441406 69.132812 L 185.886719 69.132812 Z M 185.886719 55.585938 " fill-opacity="1" fill-rule="nonzero"/></g><g clip-path="url(#d6b19ad900)"><path fill="#5267df" d="M 72.75 62.175781 C 72.75 63.007812 72.667969 63.832031 72.507812 64.648438 C 72.34375 65.460938 72.105469 66.253906 71.785156 67.023438 C 71.46875 67.792969 71.078125 68.523438 70.617188 69.214844 C 70.152344 69.90625 69.628906 70.542969 69.039062 71.132812 C 68.453125 71.722656 67.8125 72.246094 67.121094 72.707031 C 66.429688 73.171875 65.699219 73.5625 64.929688 73.878906 C 64.164062 74.195312 63.371094 74.4375 62.554688 74.601562 C 61.738281 74.761719 60.914062 74.84375 60.082031 74.84375 C 59.25 74.84375 58.425781 74.761719 57.613281 74.601562 C 56.796875 74.4375 56.003906 74.195312 55.234375 73.878906 C 54.464844 73.5625 53.738281 73.171875 53.046875 72.707031 C 52.351562 72.246094 51.714844 71.722656 51.125 71.132812 C 50.539062 70.542969 50.011719 69.90625 49.550781 69.214844 C 49.085938 68.523438 48.699219 67.792969 48.378906 67.023438 C 48.0625 66.253906 47.820312 65.460938 47.660156 64.648438 C 47.496094 63.832031 47.414062 63.007812 47.414062 62.175781 C 47.414062 61.34375 47.496094 60.519531 47.660156 59.703125 C 47.820312 58.886719 48.0625 58.097656 48.378906 57.328125 C 48.699219 56.558594 49.085938 55.828125 49.550781 55.136719 C 50.011719 54.445312 50.539062 53.804688 51.125 53.21875 C 51.714844 52.628906 52.351562 52.105469 53.046875 51.640625 C 53.738281 51.179688 54.464844 50.789062 55.234375 50.472656 C 56.003906 50.152344 56.796875 49.914062 57.613281 49.75 C 58.425781 49.589844 59.25 49.507812 60.082031 49.507812 C 60.914062 49.507812 61.738281 49.589844 62.554688 49.75 C 63.371094 49.914062 64.164062 50.152344 64.929688 50.472656 C 65.699219 50.789062 66.429688 51.179688 67.121094 51.640625 C 67.8125 52.105469 68.453125 52.628906 69.039062 53.21875 C 69.628906 53.804688 70.152344 54.445312 70.617188 55.136719 C 71.078125 55.828125 71.46875 56.558594 71.785156 57.328125 C 72.105469 58.097656 72.34375 58.886719 72.507812 59.703125 C 72.667969 60.519531 72.75 61.34375 72.75 62.175781 Z M 72.75 62.175781 " fill-opacity="1" fill-rule="nonzero"/></g><path fill="#ffffff" d="M 56.535156 58.628906 L 56.535156 68.761719 L 60.125 65.277344 L 63.710938 68.761719 L 63.710938 58.628906 C 63.710938 58.359375 63.65625 58.101562 63.554688 57.851562 C 63.453125 57.605469 63.304688 57.386719 63.117188 57.195312 C 62.925781 57.003906 62.707031 56.859375 62.457031 56.753906 C 62.210938 56.652344 61.949219 56.601562 61.683594 56.601562 L 58.5625 56.601562 C 58.292969 56.601562 58.035156 56.652344 57.789062 56.753906 C 57.539062 56.859375 57.320312 57.003906 57.128906 57.195312 C 56.941406 57.386719 56.792969 57.605469 56.691406 57.851562 C 56.585938 58.101562 56.535156 58.359375 56.535156 58.628906 Z M 56.535156 58.628906 " fill-opacity="1" fill-rule="evenodd"/></svg>